<svg xmlns:xlink="http://www.w3.org/1999/xlink" width="26" height="26" viewBox="0 0 26 26" fill="none" xmlns="http://www.w3.org/2000/svg" class="mt-2 bg-white absolute top-0 z-10" style="stroke: #FDC93D;"><g id="delivered_svg__ICON____smiley-happy" style="" stroke="#FDC93D" fill="#FDC93D"><g id="delivered_svg__ICON____smiley-happy_2" style="" stroke="#FDC93D" fill="#FDC93D"><mask id="delivered_svg__path-1-outside-1_908_8669" maskUnits="userSpaceOnUse" x="0" y="0" width="26" height="26" fill="#FDC93D" style="" stroke="#FDC93D"><rect fill="#FFFFFF" width="26" height="26" stroke="#FDC93D"></rect><path fill-rule="evenodd" clip-rule="evenodd" d="M10.121 10.235C10.121 10.4896 10.0198 10.7338 9.83975 10.9138C9.6597 11.0939 9.41549 11.1951 9.16086 11.1951C8.90622 11.1951 8.66202 11.0939 8.48196 10.9138C8.30191 10.7338 8.20076 10.4896 8.20076 10.235C8.20076 9.98032 8.30191 9.73612 8.48196 9.55606C8.66202 9.37601 8.90622 9.27486 9.16086 9.27486C9.41549 9.27486 9.6597 9.37601 9.83975 9.55606C10.0198 9.73612 10.121 9.98032 10.121 10.235ZM17.8017 10.235C17.8017 10.4896 17.7006 10.7338 17.5205 10.9138C17.3405 11.0939 17.0963 11.1951 16.8416 11.1951C16.587 11.1951 16.3428 11.0939 16.1628 10.9138C15.9827 10.7338 15.8815 10.4896 15.8815 10.235C15.8815 9.98032 15.9827 9.73612 16.1628 9.55606C16.3428 9.37601 16.587 9.27486 16.8416 9.27486C17.0963 9.27486 17.3405 9.37601 17.5205 9.55606C17.7006 9.73612 17.8017 9.98032 17.8017 10.235ZM19.3799 22.1132C19.853 22.1132 20.043 22.7272 19.6499 22.9893C17.6806 24.3042 15.3652 25.0049 12.9973 25.0025C11.4219 25.004 9.86169 24.6943 8.4063 24.0912C6.95092 23.4881 5.62898 22.6035 4.51638 21.4881C3.39951 20.3753 2.51383 19.0525 1.91034 17.596C1.30685 16.1394 0.997466 14.5779 1.00002 13.0012C1.00002 9.6889 2.33815 6.69059 4.51538 4.51437C5.62804 3.39911 6.94999 2.51456 8.40536 1.91148C9.86073 1.30839 11.4209 0.998641 12.9963 1C15.2564 0.999533 17.4708 1.6373 19.3844 2.83989C21.2981 4.04248 22.8332 5.761 23.8132 7.79765C24.7932 9.8343 25.1781 12.1063 24.9237 14.3521C24.6693 16.5979 23.7859 18.7262 22.3752 20.492C22.3362 20.5415 22.2878 20.5829 22.2329 20.6137C22.1779 20.6445 22.1173 20.6642 22.0548 20.6716C21.9922 20.6791 21.9287 20.6741 21.868 20.657C21.8074 20.6399 21.7507 20.611 21.7011 20.572C21.6516 20.533 21.6103 20.4846 21.5795 20.4297C21.5487 20.3747 21.529 20.3142 21.5215 20.2516C21.5141 20.189 21.5191 20.1255 21.5362 20.0649C21.5533 20.0042 21.5821 19.9475 21.6211 19.898C22.2557 19.106 22.778 18.2303 23.1733 17.2957C23.7504 15.9345 24.0424 14.4894 24.0424 13.0012C24.0424 11.5121 23.7504 10.0679 23.1733 8.7058C22.618 7.39355 21.815 6.20066 20.8081 5.19244C19.7995 4.18544 18.6063 3.38236 17.2937 2.82719C15.9346 2.25164 14.4732 1.95638 12.9973 1.9591C11.5481 1.95855 10.113 2.24385 8.7743 2.79868C7.43555 3.3535 6.21939 4.16695 5.19545 5.19244C4.16644 6.21532 3.35063 7.43221 2.79527 8.77263C2.23991 10.113 1.95604 11.5503 1.96011 13.0012C1.96011 15.9515 3.10923 18.7238 5.19545 20.809C6.2191 21.8346 7.43507 22.6482 8.77368 23.203C10.1123 23.7578 11.5472 24.0431 12.9963 24.0424C14.4864 24.0424 15.9316 23.7503 17.2927 23.1743C17.9328 22.9043 18.5398 22.5762 19.1129 22.1942C19.192 22.1415 19.2849 22.1133 19.3799 22.1132Z" style="" stroke="#FDC93D" fill="#FDC93D"></path><path d="M7.94058 14.5016C7.82647 14.464 7.7024 14.4706 7.59296 14.5202C7.53275 14.5474 7.47881 14.5867 7.43452 14.6357C7.39023 14.6847 7.35656 14.7423 7.33562 14.805C7.31467 14.8676 7.30691 14.9339 7.31282 14.9997C7.31872 15.0655 7.33817 15.1294 7.36994 15.1873C7.92817 16.1914 8.74436 17.0283 9.73421 17.6115C10.7241 18.1947 11.8517 18.503 13.0005 18.5046C14.1494 18.503 15.277 18.1947 16.2668 17.6115C17.2567 17.0283 18.0729 16.1914 18.6311 15.1873C18.6616 15.1321 18.6809 15.0715 18.6879 15.0089C18.695 14.9463 18.6896 14.8829 18.6721 14.8223C18.6547 14.7618 18.6255 14.7052 18.5862 14.656C18.5469 14.6067 18.4982 14.5657 18.4431 14.5352C18.3879 14.5047 18.3273 14.4854 18.2647 14.4784C18.2021 14.4714 18.1387 14.4767 18.0781 14.4942C18.0176 14.5116 17.961 14.5409 17.9118 14.5802C17.8625 14.6195 17.8215 14.6681 17.791 14.7232C17.316 15.5775 16.6216 16.2895 15.7794 16.7856C14.9373 17.2817 13.9779 17.5441 13.0005 17.5455C12.0229 17.5443 11.0634 17.282 10.221 16.7858C9.37871 16.2897 8.68411 15.5776 8.20902 14.7232C8.1505 14.6183 8.05469 14.5392 7.94058 14.5016Z" stroke="#FDC93D" fill="#FDC93D"></path></mask><path fill-rule="evenodd" clip-rule="evenodd" d="M10.121 10.235C10.121 10.4896 10.0198 10.7338 9.83975 10.9138C9.6597 11.0939 9.41549 11.1951 9.16086 11.1951C8.90622 11.1951 8.66202 11.0939 8.48196 10.9138C8.30191 10.7338 8.20076 10.4896 8.20076 10.235C8.20076 9.98032 8.30191 9.73612 8.48196 9.55606C8.66202 9.37601 8.90622 9.27486 9.16086 9.27486C9.41549 9.27486 9.6597 9.37601 9.83975 9.55606C10.0198 9.73612 10.121 9.98032 10.121 10.235ZM17.8017 10.235C17.8017 10.4896 17.7006 10.7338 17.5205 10.9138C17.3405 11.0939 17.0963 11.1951 16.8416 11.1951C16.587 11.1951 16.3428 11.0939 16.1628 10.9138C15.9827 10.7338 15.8815 10.4896 15.8815 10.235C15.8815 9.98032 15.9827 9.73612 16.1628 9.55606C16.3428 9.37601 16.587 9.27486 16.8416 9.27486C17.0963 9.27486 17.3405 9.37601 17.5205 9.55606C17.7006 9.73612 17.8017 9.98032 17.8017 10.235ZM19.3799 22.1132C19.853 22.1132 20.043 22.7272 19.6499 22.9893C17.6806 24.3042 15.3652 25.0049 12.9973 25.0025C11.4219 25.004 9.86169 24.6943 8.4063 24.0912C6.95092 23.4881 5.62898 22.6035 4.51638 21.4881C3.39951 20.3753 2.51383 19.0525 1.91034 17.596C1.30685 16.1394 0.997466 14.5779 1.00002 13.0012C1.00002 9.6889 2.33815 6.69059 4.51538 4.51437C5.62804 3.39911 6.94999 2.51456 8.40536 1.91148C9.86073 1.30839 11.4209 0.998641 12.9963 1C15.2564 0.999533 17.4708 1.6373 19.3844 2.83989C21.2981 4.04248 22.8332 5.761 23.8132 7.79765C24.7932 9.8343 25.1781 12.1063 24.9237 14.3521C24.6693 16.5979 23.7859 18.7262 22.3752 20.492C22.3362 20.5415 22.2878 20.5829 22.2329 20.6137C22.1779 20.6445 22.1173 20.6642 22.0548 20.6716C21.9922 20.6791 21.9287 20.6741 21.868 20.657C21.8074 20.6399 21.7507 20.611 21.7011 20.572C21.6516 20.533 21.6103 20.4846 21.5795 20.4297C21.5487 20.3747 21.529 20.3142 21.5215 20.2516C21.5141 20.189 21.5191 20.1255 21.5362 20.0649C21.5533 20.0042 21.5821 19.9475 21.6211 19.898C22.2557 19.106 22.778 18.2303 23.1733 17.2957C23.7504 15.9345 24.0424 14.4894 24.0424 13.0012C24.0424 11.5121 23.7504 10.0679 23.1733 8.7058C22.618 7.39355 21.815 6.20066 20.8081 5.19244C19.7995 4.18544 18.6063 3.38236 17.2937 2.82719C15.9346 2.25164 14.4732 1.95638 12.9973 1.9591C11.5481 1.95855 10.113 2.24385 8.7743 2.79868C7.43555 3.3535 6.21939 4.16695 5.19545 5.19244C4.16644 6.21532 3.35063 7.43221 2.79527 8.77263C2.23991 10.113 1.95604 11.5503 1.96011 13.0012C1.96011 15.9515 3.10923 18.7238 5.19545 20.809C6.2191 21.8346 7.43507 22.6482 8.77368 23.203C10.1123 23.7578 11.5472 24.0431 12.9963 24.0424C14.4864 24.0424 15.9316 23.7503 17.2927 23.1743C17.9328 22.9043 18.5398 22.5762 19.1129 22.1942C19.192 22.1415 19.2849 22.1133 19.3799 22.1132Z" fill="#FDC93D" style="" stroke="#FDC93D"></path><path d="M7.94058 14.5016C7.82647 14.464 7.7024 14.4706 7.59296 14.5202C7.53275 14.5474 7.47881 14.5867 7.43452 14.6357C7.39023 14.6847 7.35656 14.7423 7.33562 14.805C7.31467 14.8676 7.30691 14.9339 7.31282 14.9997C7.31872 15.0655 7.33817 15.1294 7.36994 15.1873C7.92817 16.1914 8.74436 17.0283 9.73421 17.6115C10.7241 18.1947 11.8517 18.503 13.0005 18.5046C14.1494 18.503 15.277 18.1947 16.2668 17.6115C17.2567 17.0283 18.0729 16.1914 18.6311 15.1873C18.6616 15.1321 18.6809 15.0715 18.6879 15.0089C18.695 14.9463 18.6896 14.8829 18.6721 14.8223C18.6547 14.7618 18.6255 14.7052 18.5862 14.656C18.5469 14.6067 18.4982 14.5657 18.4431 14.5352C18.3879 14.5047 18.3273 14.4854 18.2647 14.4784C18.2021 14.4714 18.1387 14.4767 18.0781 14.4942C18.0176 14.5116 17.961 14.5409 17.9118 14.5802C17.8625 14.6195 17.8215 14.6681 17.791 14.7232C17.316 15.5775 16.6216 16.2895 15.7794 16.7856C14.9373 17.2817 13.9779 17.5441 13.0005 17.5455C12.0229 17.5443 11.0634 17.282 10.221 16.7858C9.37871 16.2897 8.68411 15.5776 8.20902 14.7232C8.1505 14.6183 8.05469 14.5392 7.94058 14.5016Z" fill="#FDC93D" style="" stroke="#FDC93D"></path><path fill-rule="evenodd" clip-rule="evenodd" d="M10.121 10.235C10.121 10.4896 10.0198 10.7338 9.83975 10.9138C9.6597 11.0939 9.41549 11.1951 9.16086 11.1951C8.90622 11.1951 8.66202 11.0939 8.48196 10.9138C8.30191 10.7338 8.20076 10.4896 8.20076 10.235C8.20076 9.98032 8.30191 9.73612 8.48196 9.55606C8.66202 9.37601 8.90622 9.27486 9.16086 9.27486C9.41549 9.27486 9.6597 9.37601 9.83975 9.55606C10.0198 9.73612 10.121 9.98032 10.121 10.235ZM17.8017 10.235C17.8017 10.4896 17.7006 10.7338 17.5205 10.9138C17.3405 11.0939 17.0963 11.1951 16.8416 11.1951C16.587 11.1951 16.3428 11.0939 16.1628 10.9138C15.9827 10.7338 15.8815 10.4896 15.8815 10.235C15.8815 9.98032 15.9827 9.73612 16.1628 9.55606C16.3428 9.37601 16.587 9.27486 16.8416 9.27486C17.0963 9.27486 17.3405 9.37601 17.5205 9.55606C17.7006 9.73612 17.8017 9.98032 17.8017 10.235ZM19.3799 22.1132C19.853 22.1132 20.043 22.7272 19.6499 22.9893C17.6806 24.3042 15.3652 25.0049 12.9973 25.0025C11.4219 25.004 9.86169 24.6943 8.4063 24.0912C6.95092 23.4881 5.62898 22.6035 4.51638 21.4881C3.39951 20.3753 2.51383 19.0525 1.91034 17.596C1.30685 16.1394 0.997466 14.5779 1.00002 13.0012C1.00002 9.6889 2.33815 6.69059 4.51538 4.51437C5.62804 3.39911 6.94999 2.51456 8.40536 1.91148C9.86073 1.30839 11.4209 0.998641 12.9963 1C15.2564 0.999533 17.4708 1.6373 19.3844 2.83989C21.2981 4.04248 22.8332 5.761 23.8132 7.79765C24.7932 9.8343 25.1781 12.1063 24.9237 14.3521C24.6693 16.5979 23.7859 18.7262 22.3752 20.492C22.3362 20.5415 22.2878 20.5829 22.2329 20.6137C22.1779 20.6445 22.1173 20.6642 22.0548 20.6716C21.9922 20.6791 21.9287 20.6741 21.868 20.657C21.8074 20.6399 21.7507 20.611 21.7011 20.572C21.6516 20.533 21.6103 20.4846 21.5795 20.4297C21.5487 20.3747 21.529 20.3142 21.5215 20.2516C21.5141 20.189 21.5191 20.1255 21.5362 20.0649C21.5533 20.0042 21.5821 19.9475 21.6211 19.898C22.2557 19.106 22.778 18.2303 23.1733 17.2957C23.7504 15.9345 24.0424 14.4894 24.0424 13.0012C24.0424 11.5121 23.7504 10.0679 23.1733 8.7058C22.618 7.39355 21.815 6.20066 20.8081 5.19244C19.7995 4.18544 18.6063 3.38236 17.2937 2.82719C15.9346 2.25164 14.4732 1.95638 12.9973 1.9591C11.5481 1.95855 10.113 2.24385 8.7743 2.79868C7.43555 3.3535 6.21939 4.16695 5.19545 5.19244C4.16644 6.21532 3.35063 7.43221 2.79527 8.77263C2.23991 10.113 1.95604 11.5503 1.96011 13.0012C1.96011 15.9515 3.10923 18.7238 5.19545 20.809C6.2191 21.8346 7.43507 22.6482 8.77368 23.203C10.1123 23.7578 11.5472 24.0431 12.9963 24.0424C14.4864 24.0424 15.9316 23.7503 17.2927 23.1743C17.9328 22.9043 18.5398 22.5762 19.1129 22.1942C19.192 22.1415 19.2849 22.1133 19.3799 22.1132Z" stroke="#FDC93D" stroke-width="0.4px" mask="url(#delivered_svg__path-1-outside-1_908_8669)" style="" fill="#FDC93D"></path><path d="M7.94058 14.5016C7.82647 14.464 7.7024 14.4706 7.59296 14.5202C7.53275 14.5474 7.47881 14.5867 7.43452 14.6357C7.39023 14.6847 7.35656 14.7423 7.33562 14.805C7.31467 14.8676 7.30691 14.9339 7.31282 14.9997C7.31872 15.0655 7.33817 15.1294 7.36994 15.1873C7.92817 16.1914 8.74436 17.0283 9.73421 17.6115C10.7241 18.1947 11.8517 18.503 13.0005 18.5046C14.1494 18.503 15.277 18.1947 16.2668 17.6115C17.2567 17.0283 18.0729 16.1914 18.6311 15.1873C18.6616 15.1321 18.6809 15.0715 18.6879 15.0089C18.695 14.9463 18.6896 14.8829 18.6721 14.8223C18.6547 14.7618 18.6255 14.7052 18.5862 14.656C18.5469 14.6067 18.4982 14.5657 18.4431 14.5352C18.3879 14.5047 18.3273 14.4854 18.2647 14.4784C18.2021 14.4714 18.1387 14.4767 18.0781 14.4942C18.0176 14.5116 17.961 14.5409 17.9118 14.5802C17.8625 14.6195 17.8215 14.6681 17.791 14.7232C17.316 15.5775 16.6216 16.2895 15.7794 16.7856C14.9373 17.2817 13.9779 17.5441 13.0005 17.5455C12.0229 17.5443 11.0634 17.282 10.221 16.7858C9.37871 16.2897 8.68411 15.5776 8.20902 14.7232C8.1505 14.6183 8.05469 14.5392 7.94058 14.5016Z" stroke="#FDC93D" stroke-width="0.4px" mask="url(#delivered_svg__path-1-outside-1_908_8669)" style="" fill="#FDC93D"></path></g></g></svg>