<svg xmlns:xlink="http://www.w3.org/1999/xlink" width="24" height="24" viewBox="0 0 24 24" fill="none" xmlns="http://www.w3.org/2000/svg" class="mt-2 bg-white absolute top-0 z-10"><g id="routewarning_svg__ICON____carrying" fill="none"><path id="routewarning_svg__Vector" fill-rule="evenodd" clip-rule="evenodd" d="M23.039 16.053L23.04 15.902C23.0406 15.8171 23.0245 15.733 22.9925 15.6544C22.9604 15.5758 22.9132 15.5043 22.8534 15.4441C22.7936 15.3838 22.7225 15.336 22.6442 15.3034C22.5659 15.2708 22.4818 15.254 22.397 15.254C22.3074 15.2537 22.2188 15.2719 22.1366 15.3073C22.0543 15.3427 21.9803 15.3947 21.919 15.46L19.056 18.534C18.993 18.6018 18.9313 18.6708 18.871 18.741C18.587 19.071 18.318 19.381 17.605 19.381H12.362C12.2347 19.381 12.1126 19.3304 12.0226 19.2404C11.9326 19.1504 11.882 19.0283 11.882 18.901C11.882 18.7737 11.9326 18.6516 12.0226 18.5616C12.1126 18.4716 12.2347 18.421 12.362 18.421H16.402C16.625 18.421 16.842 18.331 16.987 18.161C17.1019 18.0263 17.1651 17.855 17.1651 17.678C17.1651 17.5009 17.1019 17.3297 16.987 17.195C16.914 17.1117 16.8238 17.0452 16.7227 17.0001C16.6215 16.955 16.5117 16.9325 16.401 16.934H13.661C13.195 16.934 12.303 16.714 11.269 16.459C10.392 16.243 9.39799 15.998 9.02299 15.998C8.53099 15.998 7.37599 16.362 6.58499 16.653V21.521C7.66799 21.81 8.90599 22.056 10.528 22.056H17.118C17.6076 22.0548 18.0902 21.9403 18.5281 21.7213C18.9661 21.5024 19.3473 21.185 19.642 20.794L22.909 16.437C22.992 16.3261 23.0375 16.1915 23.039 16.053ZM11.654 10.969H14.367V7.514H11.654V10.969ZM7.56199 7.505V15.318C8.09499 15.164 8.64499 15.038 9.02199 15.038C9.51499 15.038 10.478 15.275 11.499 15.527C12.349 15.737 13.312 15.974 13.662 15.974H16.422C16.6949 15.9737 16.9638 16.039 17.2062 16.1644C17.4485 16.2898 17.6572 16.4716 17.8145 16.6945C17.9719 16.9175 18.0733 17.175 18.1103 17.4453C18.1472 17.7157 18.1187 17.991 18.027 18.248C18.06 18.212 18.098 18.168 18.145 18.113C18.205 18.044 18.273 17.966 18.353 17.879L18.459 17.766V7.505H15.327V11.209C15.327 11.3999 15.2511 11.5831 15.1161 11.7181C14.9811 11.8531 14.7979 11.929 14.607 11.929H11.414C11.223 11.929 11.0399 11.8531 10.9049 11.7181C10.7698 11.5831 10.694 11.3999 10.694 11.209V7.505H7.56199ZM9.17399 2.16V6.545H16.847V2.16H14.91V3.873C14.91 4.06396 14.8341 4.24709 14.6991 4.38212C14.5641 4.51714 14.3809 4.593 14.19 4.593H11.833C11.642 4.593 11.4589 4.51714 11.3239 4.38212C11.1888 4.24709 11.113 4.06396 11.113 3.873V2.16H9.17399ZM12.072 3.633H13.949V2.16H12.072V3.633ZM22.405 14.294C22.8311 14.298 23.2383 14.4707 23.5373 14.7744C23.8362 15.078 24.0026 15.4878 24 15.914L23.999 16.06C23.996 16.402 23.882 16.74 23.677 17.013L20.41 21.37C20.0255 21.88 19.5281 22.2941 18.9568 22.5797C18.3854 22.8652 17.7557 23.0146 17.117 23.016H10.528C9.18618 23.0165 7.84989 22.8444 6.55199 22.504C6.50728 22.6521 6.41602 22.782 6.29173 22.8742C6.16745 22.9664 6.01676 23.0161 5.86199 23.016H2.095C1.96769 23.016 1.8456 22.9654 1.75559 22.8754C1.66557 22.7854 1.615 22.6633 1.615 22.536C1.615 22.4087 1.66557 22.2866 1.75559 22.1966C1.8456 22.1065 1.96769 22.056 2.095 22.056H5.61799L5.62399 21.886V15.998H0.959999V20.922C0.959999 21.0493 0.909427 21.1714 0.81941 21.2614C0.729393 21.3514 0.607303 21.402 0.479999 21.402C0.352696 21.402 0.230606 21.3514 0.140589 21.2614C0.0505712 21.1714 0 21.0493 0 20.922L0 15.758C0 15.6634 0.0186233 15.5698 0.0548067 15.4825C0.09099 15.3951 0.144025 15.3157 0.210883 15.2489C0.277741 15.182 0.357113 15.129 0.444467 15.0928C0.531822 15.0566 0.625447 15.038 0.719999 15.038H5.86299C6.03298 15.0382 6.19741 15.0986 6.32718 15.2084C6.45694 15.3182 6.54366 15.4704 6.57199 15.638L6.60199 15.627V7.265C6.60199 7.07404 6.67785 6.89091 6.81287 6.75588C6.9479 6.62086 7.13103 6.545 7.32199 6.545H8.21399V1.92001C8.21399 1.72905 8.28985 1.54591 8.42487 1.41089C8.5599 1.27586 8.74303 1.20001 8.93399 1.20001H17.135C17.506 1.20001 17.807 1.50001 17.807 1.87201V6.545H18.699C18.8899 6.545 19.0731 6.62086 19.2081 6.75588C19.3431 6.89091 19.419 7.07404 19.419 7.265V16.735L21.216 14.805C21.523 14.477 21.956 14.289 22.406 14.295L22.405 14.294ZM0.467999 22.087C0.592121 22.087 0.711158 22.1363 0.798925 22.2241C0.886692 22.3118 0.935999 22.4309 0.935999 22.555C0.935999 22.6791 0.886692 22.7981 0.798925 22.8859C0.711158 22.9737 0.592121 23.023 0.467999 23.023C0.343878 23.023 0.224841 22.9737 0.137074 22.8859C0.0493069 22.7981 0 22.6791 0 22.555C0 22.4309 0.0493069 22.3118 0.137074 22.2241C0.224841 22.1363 0.343878 22.087 0.467999 22.087Z" fill="#FE8523"></path></g></svg>