<svg xmlns:xlink="http://www.w3.org/1999/xlink" width="24" height="24" viewBox="0 0 24 24" fill="none" xmlns="http://www.w3.org/2000/svg" class="mt-2 bg-white absolute top-0 z-10"><g id="info_svg__ICON____box-add" fill="none"><g id="info_svg__Frame" clip-path="url(#info_svg__clip0_908_8667)" fill="none"><g id="info_svg__caixatxt" fill="none"><path id="info_svg__Caminho_26" d="M10.7481 21.0367V11.2335L19.7293 7.48181V13.2279H19.7341C20.0201 13.2288 20.3053 13.2532 20.5873 13.3011V6.62563L10.3317 2.39993L0 6.62563V17.8975L10.3197 22.1232L15.8438 19.8499C15.7177 19.5985 15.6148 19.336 15.5366 19.0657L10.7481 21.0367ZM10.3323 3.31071L18.9871 6.87762L15.1526 8.48078L6.43303 4.90547L10.3323 3.31071ZM9.89074 21.0367L0.857974 17.3396V7.507L9.89016 11.2335V21.0367H9.89074ZM10.3155 10.4991L1.57496 6.89442L5.31947 5.36266L14.0517 8.94217L10.3155 10.4991Z" fill="#258FD7"></path><path id="info_svg__Caminho_27" d="M20.1396 13.9947C18.0316 13.974 16.3047 15.6636 16.2793 17.7716C16.3047 19.8795 18.0316 21.5691 20.1396 21.5485C22.2476 21.5691 23.9745 19.8795 23.9999 17.7716C23.9742 15.6638 22.2475 13.9743 20.1396 13.9947ZM20.1396 20.7091C18.5003 20.7234 17.1584 19.4084 17.1397 17.7692C17.1584 16.1299 18.5003 14.8149 20.1396 14.8292C21.7789 14.8149 23.1207 16.1299 23.1395 17.7692C23.1207 19.4084 21.7789 20.7234 20.1396 20.7091Z" fill="#258FD7"></path><path id="info_svg__Caminho_28" d="M21.8548 17.405H20.5144V16.0934C20.5121 15.8885 20.3443 15.7242 20.1394 15.7262C19.9343 15.7239 19.7662 15.8883 19.7638 16.0934V16.0934V17.405H18.4234C18.2184 17.4026 18.0502 17.567 18.0479 17.7721V17.7722C18.0501 17.9773 18.2183 18.1416 18.4234 18.1394H18.4234H19.7638V19.4509C19.7661 19.6561 19.9343 19.8204 20.1393 19.8181H20.1394C20.3443 19.8202 20.5121 19.6558 20.5144 19.4509V18.1394H21.8548C22.0597 18.1414 22.2275 17.9771 22.2297 17.7722C22.2274 17.5673 22.0597 17.4029 21.8548 17.405Z" fill="#258FD7"></path></g></g></g><defs><clipPath id="info_svg__clip0_908_8667"><rect width="24" height="19.7233" fill="white" transform="translate(0 2.39993)"></rect></clipPath></defs></svg>