<svg xmlns:xlink="http://www.w3.org/1999/xlink" width="24" height="24" viewBox="0 0 24 24" fill="none" xmlns="http://www.w3.org/2000/svg" class="mt-2 bg-white absolute top-0 z-10"><g id="posted_svg__ICON____box" fill="none"><path id="posted_svg__Vector" fill-rule="evenodd" clip-rule="evenodd" d="M19.4575 9.48267C19.6955 9.48267 19.9135 9.67067 19.9135 9.93668V15.0528C19.9135 15.1695 19.8834 15.2843 19.8261 15.3861C19.7688 15.4879 19.6863 15.5732 19.5865 15.6338L13.8084 19.1498C13.7395 19.1919 13.6606 19.2149 13.5798 19.2164C13.499 19.2178 13.4193 19.1978 13.3489 19.1583C13.2784 19.1188 13.2198 19.0613 13.1789 18.9916C13.138 18.9219 13.1165 18.8426 13.1164 18.7618V13.6457C13.1164 13.529 13.1465 13.4142 13.2038 13.3124C13.2611 13.2106 13.3436 13.1253 13.4434 13.0647L19.2225 9.54967C19.2932 9.50613 19.3745 9.48295 19.4575 9.48267ZM18.9515 10.8377L14.0784 13.8027V17.8608L18.9515 14.8958V10.8377ZM7.71331 20.6009L11.3474 22.8139L11.3594 12.4597L7.71331 10.3647V14.4148C7.71331 14.7698 7.3233 14.9878 7.01929 14.8038L4.35525 13.1897C4.25493 13.1293 4.17192 13.0439 4.11428 12.942C4.05664 12.84 4.02631 12.7249 4.02624 12.6077V8.24765L2.11221 7.14763V17.1898L4.02624 18.3548V16.9508C4.02624 16.5968 4.41625 16.3788 4.71925 16.5628L7.3843 18.1768C7.48462 18.2373 7.56763 18.3226 7.62527 18.4246C7.68291 18.5266 7.71324 18.6417 7.71331 18.7588V20.5999V20.6009ZM6.80029 20.0458V18.8868L4.94026 17.7598V18.9118L6.80029 20.0458ZM11.8154 0.907524L2.56022 6.35662L4.60025 7.52664L13.9434 2.15955L11.8154 0.907524ZM4.94026 8.77166V12.4807L6.80029 13.6077V9.84067L4.94026 8.77066V8.77166ZM8.36032 9.68767L11.8164 11.6737L21.0715 6.35662L17.6575 4.34658L16.7775 4.85159C16.6764 4.90952 16.5571 4.92677 16.4438 4.89984C16.3304 4.8729 16.2316 4.8038 16.1674 4.70659C16.1335 4.65488 16.1105 4.59677 16.0999 4.53583C16.0892 4.4749 16.0912 4.41243 16.1056 4.35228C16.12 4.29213 16.1466 4.23557 16.1838 4.18609C16.2209 4.13661 16.2677 4.09526 16.3215 4.06458L16.7555 3.81457L14.8444 2.68955L5.51027 8.05164L7.4453 9.16366L14.3404 5.2016C14.4413 5.14333 14.5606 5.12578 14.674 5.15255C14.7874 5.17931 14.8863 5.24837 14.9504 5.3456C14.9844 5.39724 15.0075 5.4553 15.0182 5.5162C15.0289 5.57709 15.027 5.63953 15.0127 5.69968C14.9984 5.75982 14.9719 5.81639 14.9348 5.86591C14.8978 5.91543 14.8511 5.95685 14.7974 5.98761L8.35732 9.68767H8.36032ZM21.9755 8.50965C21.9157 8.50992 21.8564 8.49837 21.801 8.47569C21.7457 8.453 21.6953 8.41962 21.6529 8.37745C21.6104 8.33527 21.5767 8.28514 21.5537 8.22992C21.5306 8.1747 21.5187 8.11548 21.5185 8.05564V7.14763L12.2714 12.4607L12.2604 22.8139L21.5185 17.1908V10.3257C21.5185 10.0757 21.7235 9.87167 21.9755 9.87167C22.2266 9.87167 22.4316 10.0747 22.4316 10.3257V17.1908C22.4316 17.5068 22.2656 17.8008 21.9945 17.9658L12.2784 23.8669C12.1351 23.954 11.9706 24 11.8029 24C11.6352 24 11.4707 23.954 11.3274 23.8669L1.6372 17.9658C1.50377 17.885 1.39345 17.7711 1.3169 17.6351C1.24034 17.4992 1.20015 17.3458 1.2002 17.1898V6.62062C1.2002 6.29861 1.3702 6.00161 1.6482 5.83861L11.3504 0.126511C11.4912 0.043679 11.6515 0 11.8149 0C11.9782 0 12.1386 0.043679 12.2794 0.126511L21.9825 5.83861C22.2596 6.00161 22.4306 6.29861 22.4306 6.61962V8.05564C22.4306 8.30565 22.2256 8.50965 21.9745 8.50965H21.9755Z" fill="#258FD7"></path></g></svg>