<svg xmlns:xlink="http://www.w3.org/1999/xlink" width="24" height="24" viewBox="0 0 24 24" fill="none" xmlns="http://www.w3.org/2000/svg" class="mt-2 bg-white absolute top-0 z-10"><g id="movement_svg__ICON____truck" fill="none"><path id="movement_svg__Vector" fill-rule="evenodd" clip-rule="evenodd" d="M13.3479 16.0106C13.5935 16.0106 13.7915 16.2117 13.7915 16.4583C13.7921 16.5763 13.7458 16.6897 13.6628 16.7736C13.5798 16.8575 13.4669 16.9051 13.3489 16.9059H11.5473C11.4293 16.9051 11.3164 16.8575 11.2335 16.7736C11.1505 16.6897 11.1042 16.5763 11.1047 16.4583C11.1047 16.2117 11.3038 16.0106 11.5473 16.0106H13.3489H13.3479ZM13.5126 4.36833C13.7652 4.36833 13.9704 4.56941 13.9704 4.81596C13.9688 4.93593 13.9197 5.05039 13.8339 5.13428C13.7481 5.21817 13.6326 5.26466 13.5126 5.26358H2.96464C2.84483 5.26439 2.72956 5.21778 2.644 5.13392C2.55843 5.05006 2.50951 4.93576 2.50792 4.81596C2.50792 4.56941 2.71304 4.36833 2.96464 4.36833H13.5136H13.5126ZM18.6275 17.6223C18.7248 17.6171 18.8221 17.6318 18.9135 17.6655C19.0049 17.6992 19.0885 17.7511 19.1592 17.8181C19.2299 17.8852 19.2862 17.9659 19.3246 18.0554C19.3631 18.1449 19.383 18.2413 19.383 18.3387C19.383 18.4361 19.3631 18.5325 19.3246 18.622C19.2862 18.7115 19.2299 18.7922 19.1592 18.8593C19.0885 18.9263 19.0049 18.9782 18.9135 19.0119C18.8221 19.0456 18.7248 19.0603 18.6275 19.0551C18.4441 19.0453 18.2714 18.9656 18.145 18.8323C18.0186 18.6991 17.9481 18.5224 17.9481 18.3387C17.9481 18.155 18.0186 17.9783 18.145 17.845C18.2714 17.7118 18.4441 17.632 18.6275 17.6223ZM5.37353 17.6223C5.47081 17.6171 5.56812 17.6318 5.65953 17.6655C5.75095 17.6992 5.83455 17.7511 5.90524 17.8181C5.97592 17.8852 6.03222 17.9659 6.07069 18.0554C6.10916 18.1449 6.129 18.2413 6.129 18.3387C6.129 18.4361 6.10916 18.5325 6.07069 18.622C6.03222 18.7115 5.97592 18.7922 5.90524 18.8593C5.83455 18.9263 5.75095 18.9782 5.65953 19.0119C5.56812 19.0456 5.47081 19.0603 5.37353 19.0551C5.1901 19.0453 5.01741 18.9656 4.89102 18.8323C4.76463 18.6991 4.69418 18.5224 4.69418 18.3387C4.69418 18.155 4.76463 17.9783 4.89102 17.845C5.01741 17.7118 5.1901 17.632 5.37353 17.6223ZM23.029 13.0632H22.1095V13.5735C22.1095 13.7856 22.2812 13.9594 22.4944 13.9594H23.03V13.0632H23.029ZM21.483 17.8496H23.037V14.9234H22.1095C21.8538 14.9234 21.6086 14.8218 21.4278 14.6411C21.2471 14.4603 21.1455 14.2151 21.1455 13.9594V12.8227C21.1455 12.4226 21.4688 12.0992 21.868 12.0992H23.034C23.0212 11.9168 22.9398 11.7461 22.8061 11.6214C22.6724 11.4967 22.4964 11.4273 22.3136 11.4273H16.2802V12.3912C16.2802 12.5191 16.2295 12.6417 16.1391 12.732C16.0487 12.8224 15.9261 12.8732 15.7982 12.8732C15.6704 12.8732 15.5478 12.8224 15.4574 12.732C15.367 12.6417 15.3163 12.5191 15.3163 12.3912V10.4623H15.3011V3.36395H0.962951V17.8496H2.51802C2.63366 17.1824 2.98059 16.5771 3.49795 16.1402C4.01532 15.7032 4.67005 15.4623 5.34726 15.4599C6.70327 15.4599 7.88548 16.4239 8.15931 17.7526L8.17649 17.8496H15.3011L15.3163 17.8648V14.7223C15.3163 14.5945 15.367 14.4719 15.4574 14.3815C15.5478 14.2911 15.6704 14.2403 15.7982 14.2403C15.9261 14.2403 16.0487 14.2911 16.1391 14.3815C16.2295 14.4719 16.2802 14.5945 16.2802 14.7223V16.72C16.5437 16.3329 16.8975 16.0158 17.3111 15.7962C17.7246 15.5767 18.1855 15.4613 18.6538 15.4599C20.0098 15.4599 21.192 16.4239 21.4658 17.7526L21.483 17.8496ZM20.521 18.7166C20.5728 18.4626 20.5728 18.2007 20.521 17.9466C20.4314 17.5173 20.197 17.1317 19.8571 16.8545C19.5172 16.5773 19.0924 16.4253 18.6538 16.4239C18.3709 16.4251 18.0919 16.4891 17.8367 16.6111C17.5815 16.733 17.3566 16.9101 17.178 17.1294C16.9994 17.3488 16.8717 17.605 16.804 17.8796C16.7363 18.1542 16.7303 18.4404 16.7865 18.7176C16.9673 19.5997 17.7524 20.2403 18.6538 20.2403C19.5541 20.2403 20.3402 19.5997 20.521 18.7166ZM7.21455 18.7166C7.26627 18.4625 7.26627 18.2007 7.21455 17.9466C7.12493 17.5173 6.89054 17.1317 6.55062 16.8545C6.2107 16.5773 5.78587 16.4253 5.34726 16.4239C5.06442 16.4251 4.78538 16.4891 4.5302 16.6111C4.27502 16.733 4.05006 16.9101 3.87149 17.1294C3.69293 17.3488 3.5652 17.605 3.4975 17.8796C3.4298 18.1542 3.42381 18.4404 3.47996 18.7176C3.66184 19.5997 4.44594 20.2403 5.34726 20.2403C6.24756 20.2403 7.03368 19.5997 7.21455 18.7166ZM20.3766 8.17264H16.2651V10.4623H20.9485L20.3766 8.17264ZM16.3257 5.68494V7.20767H20.6201V6.40942C20.6202 6.31433 20.6016 6.22014 20.5653 6.13225C20.529 6.04436 20.4757 5.96448 20.4085 5.8972C20.3413 5.82991 20.2615 5.77653 20.1737 5.74011C20.0859 5.70368 19.9917 5.68494 19.8966 5.68494H16.3257ZM22.5551 10.4623C23.3533 10.4623 24 11.11 24 11.9093V18.0911C24 18.4903 23.6767 18.8146 23.2775 18.8146H21.483C21.4769 18.8459 21.4729 18.8783 21.4658 18.9106C21.331 19.5573 20.9781 20.1381 20.4662 20.5557C19.9542 20.9732 19.3144 21.2022 18.6538 21.2043C17.9931 21.2022 17.3533 20.9732 16.8414 20.5557C16.3294 20.1381 15.9765 19.5573 15.8417 18.9106L15.8245 18.8146H8.17447C8.17043 18.8459 8.16437 18.8783 8.1583 18.9106C8.02349 19.5573 7.67057 20.1381 7.15865 20.5557C6.64672 20.9732 6.00687 21.2022 5.34624 21.2043C4.68562 21.2022 4.04577 20.9732 3.53384 20.5557C3.02191 20.1381 2.669 19.5573 2.53419 18.9106L2.51701 18.8146H0.722466C0.627458 18.8145 0.533406 18.7956 0.445681 18.7592C0.357955 18.7227 0.278274 18.6693 0.211187 18.602C0.1441 18.5347 0.0909206 18.4549 0.0546852 18.3671C0.0184497 18.2792 -0.000132079 18.1851 7.06664e-07 18.0901V3.12347C7.06664e-07 2.72334 0.323342 2.39999 0.722466 2.39999H15.5426C15.9417 2.39999 16.2651 2.72334 16.2651 3.12347V4.71997H20.1371C20.9353 4.71997 21.583 5.36867 21.583 6.16793V7.44917C21.5831 7.55419 21.5603 7.65798 21.5162 7.75327C21.472 7.84856 21.4076 7.93306 21.3274 8.00087L21.9427 10.4623H22.5551Z" fill="#258FD7"></path></g></svg>