<svg xmlns="http://www.w3.org/2000/svg" viewBox="0 0 434.51 333.34"><defs><style>.cls-1{fill:#c28e64;}.cls-2{fill:#9c6f4b;}.cls-3{fill:#f0c7a8;}.cls-4{fill:#e0b08b;}</style></defs><title>Caixa</title><g id="Camada_2" data-name="Camada 2"><g id="Camada_1-2" data-name="Camada 1"><polygon class="cls-1" points="217.25 217.44 76.78 136.33 217.25 55.22 357.74 136.33 217.25 217.44"/><polygon class="cls-2" points="217.25 55.22 357.74 136.33 217.25 217.44 217.25 55.22"/><polygon class="cls-3" points="173.65 0 33.17 81.11 76.78 136.33 217.25 55.22 173.65 0"/><polygon class="cls-4" points="260.87 0 401.35 81.11 357.74 136.33 217.25 55.22 260.87 0"/><polygon class="cls-1" points="217.25 333.34 76.78 252.22 76.78 136.33 217.25 217.44 217.25 333.34"/><polygon class="cls-2" points="125.22 280.19 157.12 298.61 157.12 182.71 125.22 164.3 125.22 280.19"/><polygon class="cls-4" points="217.25 333.34 357.74 252.22 357.74 136.33 217.25 217.44 217.25 333.34"/><polygon class="cls-1" points="309.2 280.19 277.3 298.61 277.3 182.71 309.2 164.3 309.2 280.19"/><polygon class="cls-3" points="357.74 136.33 217.25 217.44 279.8 244.59 434.51 145.29 357.74 136.33"/><polygon class="cls-4" points="0 145.29 154.72 244.59 217.25 217.44 76.78 136.33 0 145.29"/></g></g></svg>